<svg width="40" height="40" viewBox="0 0 40 40" fill="none" xmlns="http://www.w3.org/2000/svg">
<g id="majesticons:door-exit">
<g id="Group">
<path id="Vector" fill-rule="evenodd" clip-rule="evenodd" d="M16.8973 3.02481C17.6438 2.80087 18.4324 2.75454 19.2 2.88953C19.9676 3.02452 20.693 3.33709 21.3183 3.80228C21.9437 4.26747 22.4516 4.87241 22.8016 5.5688C23.1515 6.26519 23.3339 7.03376 23.334 7.81315V32.1865C23.3339 32.9659 23.1515 33.7344 22.8016 34.4308C22.4516 35.1272 21.9437 35.7322 21.3183 36.1973C20.693 36.6625 19.9676 36.9751 19.2 37.1101C18.4324 37.2451 17.6438 37.1988 16.8973 36.9748L6.89732 33.9748C5.86749 33.6659 4.96467 33.0332 4.32279 32.1707C3.68091 31.3081 3.33416 30.2616 3.33398 29.1865V10.8131C3.33416 9.73797 3.68091 8.6915 4.32279 7.82895C4.96467 6.96641 5.86749 6.33374 6.89732 6.02481L16.8973 3.02481ZM25.0007 6.66648C25.0007 6.22445 25.1762 5.80053 25.4888 5.48797C25.8014 5.17541 26.2253 4.99981 26.6673 4.99981H31.6673C32.9934 4.99981 34.2652 5.5266 35.2029 6.46428C36.1405 7.40196 36.6673 8.67373 36.6673 9.99981V11.6665C36.6673 12.1085 36.4917 12.5324 36.1792 12.845C35.8666 13.1575 35.4427 13.3331 35.0007 13.3331C34.5586 13.3331 34.1347 13.1575 33.8221 12.845C33.5096 12.5324 33.334 12.1085 33.334 11.6665V9.99981C33.334 9.55778 33.1584 9.13386 32.8458 8.8213C32.5333 8.50874 32.1093 8.33315 31.6673 8.33315H26.6673C26.2253 8.33315 25.8014 8.15755 25.4888 7.84499C25.1762 7.53243 25.0007 7.10851 25.0007 6.66648ZM35.0007 26.6665C35.4427 26.6665 35.8666 26.8421 36.1792 27.1546C36.4917 27.4672 36.6673 27.8911 36.6673 28.3331V29.9998C36.6673 31.3259 36.1405 32.5977 35.2029 33.5353C34.2652 34.473 32.9934 34.9998 31.6673 34.9998H26.6673C26.2253 34.9998 25.8014 34.8242 25.4888 34.5117C25.1762 34.1991 25.0007 33.7752 25.0007 33.3331C25.0007 32.8911 25.1762 32.4672 25.4888 32.1546C25.8014 31.8421 26.2253 31.6665 26.6673 31.6665H31.6673C32.1093 31.6665 32.5333 31.4909 32.8458 31.1783C33.1584 30.8658 33.334 30.4418 33.334 29.9998V28.3331C33.334 27.8911 33.5096 27.4672 33.8221 27.1546C34.1347 26.8421 34.5586 26.6665 35.0007 26.6665ZM15.0007 18.3331C14.5586 18.3331 14.1347 18.5087 13.8221 18.8213C13.5096 19.1339 13.334 19.5578 13.334 19.9998C13.334 20.4418 13.5096 20.8658 13.8221 21.1783C14.1347 21.4909 14.5586 21.6665 15.0007 21.6665H15.0023C15.4443 21.6665 15.8683 21.4909 16.1808 21.1783C16.4934 20.8658 16.669 20.4418 16.669 19.9998C16.669 19.5578 16.4934 19.1339 16.1808 18.8213C15.8683 18.5087 15.4443 18.3331 15.0023 18.3331H15.0007Z" fill="#292D32"/>
<path id="Vector_2" d="M35.0013 19.9998L31.668 23.3332M26.668 19.9998H35.0013H26.668ZM35.0013 19.9998L31.668 16.6665L35.0013 19.9998Z" stroke="#3366FF" stroke-width="3.33333" stroke-linecap="round" stroke-linejoin="round"/>
</g>
</g>
</svg>
